<svg xmlns="http://www.w3.org/2000/svg" xmlns:xlink="http://www.w3.org/1999/xlink" viewBox="0 0 566.71 151.8"><defs><style>.cls-1{fill:#333;}</style><symbol id="CulCiclista" data-name="CulCiclista" viewBox="0 0 566.71 151.8"><path class="cls-1" d="M188.83,100,188,98.79a6.72,6.72,0,0,0,.84-1.69s.17-.85.17-1l-1,1.52-.51-2.54.85-1.35c-1,.17-1.35.85-2,1.86-4.06,5.07-20.79,31.26-30.08,38.36a2.87,2.87,0,0,1-.85.34c-.67,0-.34-.84-.67-2v-.67c0-12.51,7.94-34.65,12-45.8,4.57-13.19,7.27-21.13,10.15-34a5.52,5.52,0,0,0,.16-1.69,2.59,2.59,0,0,0-.33-1.53c0-3-2-5.74-5.41-6.92a1.08,1.08,0,0,0-1-.85,2.43,2.43,0,0,0-2.19,1.35c-6.38,19.78-15.58,43.16-20.31,58.29-6.2,8.81-21.12,29.43-24.48,29.43-.33,0-.5-.34-.5-1v-.67c1.52-12,6.42-29.75,10.64-40.9,0-.17-1.35-.85-1.35-1.52a6,6,0,0,0,.17-1.19c-1.35-1.69-5.58-2.19-7.1-2.19-5.07,0-26,40.56-28.9,41.06l-.34-1c1.19-12.51,8.79-28.22,14.54-38.7a2.09,2.09,0,0,0,.34-.85c0-1.86-7.27-3.38-9.13-3.38-1.63,0-4.61,3.1-7.42,7C92.76,87.58,84.36,97,83.8,97.6,62.2,124,40.2,144,32.6,144.4c-11.2-1-14.8-11.6-14.8-23v-2.6c0-15.6,7.2-35.4,10.2-43.4C42.4,43,58.4,18,72.6,12c1.6,0,4.2,1.8,5.8,2.8,3.2,4.6,3.8,8.4,3.8,13.2v2.4c-.2,3-1.4,12.4-4.2,15.2,0,5.4,4,10.2,8.8,10.8A18,18,0,0,1,91.4,55c2.4-5.6,5-12.6,5.4-18.2a29.74,29.74,0,0,0,.6-5.6V29.8c0-10.4-5-21.8-12.6-25.2-.2,0-.6-.6-.6-.6-2-.8-7-3.6-8.2-3.6L72,.2C71.1.15,69.3,0,68.4,0c-.6,0-1.2.2-1.6.2-1.4,0-7.6,1-8.2,2.6C27,25.8,2.4,76.6,0,113.6v2.8c0,15.4,9.2,35.2,26.6,35.2l3.4.2c10.8,0,22.2-9,22.6-9.4.2-.2.6,0,.6-.6l.8-.2,2.4-2c3.2-2.8,7.2-7,9.4-9.2a22.06,22.06,0,0,0,3-2.8,11.77,11.77,0,0,1,1.8-1.8,29.43,29.43,0,0,0,2.8-3.2,3.52,3.52,0,0,1,.4-.4,8.66,8.66,0,0,1,1.4-1.4c.4-1.2,1.6-1.8,1.6-2.6.2,0,5.4-6.4,6-7.8l2.07-3.69a45.88,45.88,0,0,0-1.49,11.52,4.68,4.68,0,0,0,.17,1.52v1.86c.67,3.55,5.41,7.94,11.15,9.12h.85c5.91,0,14-12,17.91-19.43a62.55,62.55,0,0,0-2,12.33v1c0,7.43,7.1,11.15,11.5,11.15,5.07,0,13.85-9.63,18.42-15.88l2.08-2.85a42,42,0,0,0-.57,6.56v2c.17,4.9,1.44,10.91,3.39,11.49a8.79,8.79,0,0,1,1.52,1c1,1,3.88,1.86,4.9,2.7a2.24,2.24,0,0,0,1.35.34c2.2,0,1.35-.51,2.87-.84,8.62-3.05,22.31-24,27.55-32.45-.34,0-.51.33-.68.67-.33,0-.5-.17-.84-.34,2-.5,4.06-4.22,5.24-5.91a15.6,15.6,0,0,0,1.52-2.87C189.68,99.13,189.17,100,188.83,100Z"/><path class="cls-1" d="M304,77.85a5.06,5.06,0,0,0,1.5.17,6.31,6.31,0,0,0,4.34-1.5c1.34-1.17,2.17-1.51,3-4,0-2.17-3.67-4.34-6-4.34-.67.5-7-.34-7,4.34a6.16,6.16,0,0,0,1,3.34C301.35,77,302.52,77.18,304,77.85Z"/><path class="cls-1" d="M412.4,77.85a5.06,5.06,0,0,0,1.5.17,6.31,6.31,0,0,0,4.34-1.5c1.34-1.17,2.18-1.51,3-4,0-2.17-3.67-4.34-6-4.34-.67.5-7-.34-7,4.34a6.16,6.16,0,0,0,1,3.34C409.73,77,410.9,77.18,412.4,77.85Z"/><path class="cls-1" d="M566.37,96.56l-.83.33.5-.83.16-1.17-1.33,1.83.67-5.34c-4.85,6.85-22.38,34.9-28.4,37.74,0,0-.16,0-.5-1.33,0-8,6.35-36.58,9.19-41.09,1-1.83,1.5-5.34,1.67-7,0-1.17-3.17-3.68-5.68-3.68h-.67l-1.33-.66c-2.68.16-4,3.84-4.85,4.84-2.33-.5-5.84-2.51-7.51-2.51-10.46,0-23.66,18-27.52,29.71-7.51,9.37-16.14,19.37-21.08,22.07a1.87,1.87,0,0,1-.83.16c-.67,0-.84-.66-.84-1.5.34-14,5.18-29.39,10.52-44.26l.17-1.16c2.5-6.18,5.18-13.53,7.35-20.38,3.67-.33,7.35-.5,11-.5,2,0,3.67,0,5.51.17,3.51.16,4.51.33,5.18.33.33-.67,2.17-1.17,2.34-1.34-.34-.16-.34-.83-.34-1,0-.33.84,0,1-1-1.51-1.67-7.35-3.67-15.2-3.84H497.4l.33-1.34a25.14,25.14,0,0,0,1.67-7V46c0-.16-.83-1-1-1.67-.17-2.33-.5-4.51-3.17-4.51-.67,0-2.51-1-3-1a1.45,1.45,0,0,0-1,.5l-1.17,2.51-5.34,14c-3.68.33-8,.66-13.53,1.33-4.84.5-12.36,1-17.2,1a23.46,23.46,0,0,1-4.34-.33c-.51-.17-.51-.33-.51-.33-.33,0-1.17.16-1.17.5a2.71,2.71,0,0,0-.5,1.5,6.44,6.44,0,0,0,.34,2.17c1.33,4,7,4.68,10.52,4.68h3.17c5.18-.34,12.19-1.5,19.88-2.51a292.2,292.2,0,0,0-11.93,33.53c-6.54,4.2-15.72,9.13-21.81,12.9-1.83-3.84-6.51-13.19-6.51-18.7,0-7.52,8-12.2,14.36-12.2h.67c.34,0,.67,0,.84,1.17,0,3.18-2.34,9.19-2.34,10,0,.5,1,1,1.84,1.34.16,0,1.67.5,2,.5a8.24,8.24,0,0,0,1.84.17c1.33,0,2-1.34,2.17-1.34h.67c1.67-1.5,3.84-4.67,3.84-7.68,0-2.5-3.18-10-6.85-10L455,71.34s-2.67-.67-3-.67c-10,0-23.38,9.35-23.38,21.54a34.59,34.59,0,0,0,.61,6.35c-7.57,10.41-18.91,25.92-23.83,28.89a3.06,3.06,0,0,1-1.33.34,22.07,22.07,0,0,1-.34-4l.17-1.5a81.16,81.16,0,0,1,4.18-15.7l.5-1.17c2-5.18,5.17-12.36,5.34-15.87v-.67c0-4.5-1.84-5.67-6.18-7-.33,0-1-.67-1.5-.67a2.08,2.08,0,0,0-2.34,1.67c-2.48,7-6.51,14.15-9.21,21.6-6.81,9.78-17.24,24.62-23.85,29.67a2.84,2.84,0,0,1-.84.34c-.67,0-.33-.84-.67-2v-.67c0-12.35,7.85-34.23,11.86-45.25,4.51-13,7.18-20.88,10-33.57a5.05,5.05,0,0,0,.17-1.67,2.48,2.48,0,0,0-.34-1.51c0-3-2-5.67-5.34-6.84a1.07,1.07,0,0,0-1-.84,2.39,2.39,0,0,0-2.17,1.34C376.21,63,367.12,86.07,362.45,101c-8.6,12-21,27.85-30.21,31.28a1.89,1.89,0,0,1-.84.16h-.66c-3,0-3.84-5.17-3.84-7.51,0-3.84,1-8.19,1.67-11.53l.66-1.83c.5-1,.34-1.84.67-2.84l.67-1.67c3.34-8.35,8.35-18.87,15.7-24.38a1,1,0,0,0,.67-.17l.33,1.33c-.83,3.85-2.34,6.68-3.51,10.36a4,4,0,0,0,1.67,3.51,3.72,3.72,0,0,0,2.51,1,8.54,8.54,0,0,0,2.17-.5c1-.5,1-1.51,1.5-2.51A19.8,19.8,0,0,1,353.78,91a11.68,11.68,0,0,0,1.67-5.34,4.8,4.8,0,0,0-.16-1.5c0-2.17-1-3.34-2.51-4.51L350.11,78c-1.17-.84-8.18-3.51-10.19-3.51a15.26,15.26,0,0,0-2.67.67,29.9,29.9,0,0,0-5,3.51,73.19,73.19,0,0,0-16,26.12c-7,9.51-15.26,20.22-19.26,22.64a3.06,3.06,0,0,1-1.33.34,22.07,22.07,0,0,1-.34-4l.17-1.5a81.16,81.16,0,0,1,4.18-15.7l.5-1.17c2-5.18,5.17-12.36,5.34-15.87v-.67c0-4.5-1.84-5.67-6.18-7-.33,0-1-.67-1.5-.67a2.08,2.08,0,0,0-2.34,1.67c-.64,1.81-1.38,3.61-2.17,5.43-3,3.08-8.12,8.87-8.56,9.31-21.6,26.4-43.6,46.4-51.2,46.8-11.2-1-14.8-11.6-14.8-23v-2.6c0-15.6,7.2-35.4,10.2-43.4C243.37,43,259.37,18,273.57,12c1.6,0,4.2,1.8,5.8,2.8,3.2,4.6,3.8,8.4,3.8,13.2v2.4c-.2,3-1.4,12.4-4.2,15.2,0,5.4,4,10.2,8.8,10.8a18,18,0,0,1,4.6-1.4c2.4-5.6,5-12.6,5.4-18.2a29.74,29.74,0,0,0,.6-5.6V29.8c0-10.4-5-21.8-12.6-25.2-.2,0-.6-.6-.6-.6-2-.8-7-3.6-8.2-3.6l-4-.2c-.9-.05-2.7-.17-3.6-.2-.6,0-1.2.2-1.6.2-1.4,0-7.6,1-8.2,2.6-31.6,23-56.2,73.8-58.6,110.8v2.8c0,15.4,9.2,35.2,26.6,35.2l3.4.2c10.8,0,22.2-9,22.6-9.4.2-.2.6,0,.6-.6l.8-.2,2.4-2c3.2-2.8,7.2-7,9.4-9.2l3-2.8c.2-.6,1.32-1.27,1.8-1.8a14.79,14.79,0,0,1,2.4-2.6.88.88,0,0,0,.4-.6c0-.2.12-.12.4-.4a9.12,9.12,0,0,1,1.4-1.4c.4-1.2,1.6-1.8,1.6-2.6,0,0,4-5.71,5-7.8.28-.57.4-1,.8-1.2.2,0,.6-.6.6-.8a7.85,7.85,0,0,1,1.38-1.78,39,39,0,0,0-2.07,12c0,4.85.66,11,5,13,1,.33,2.17,1.5,3,1.5.34.84,3.34.84,3.34.84,6.07,0,14.88-10.23,18.42-14.92,0,.47-.05,1-.05,1.39l.17,1.33a18.42,18.42,0,0,0,2.34,8.86c2.17,4.34,10.52,7.85,15.53,7.85l.83-.17a24.32,24.32,0,0,0,5.35-1.67,43.68,43.68,0,0,0,11.35-8.35c.84-.67,1.17-1.5,2-2.17,0,.16,1-1.17,1-1l2.17-2.51c.17-.33.5-1.5,1.34-1.67.75-1,1.79-2.38,3-4a43.1,43.1,0,0,0-.64,7v2c.17,4.84,1.42,10.78,3.34,11.36a6.19,6.19,0,0,1,1.51,1c1.09.9,3.84,1.84,4.84,2.67a2.25,2.25,0,0,0,1.33.33c2.18,0,1.34-.5,2.84-.83,5.87-2.07,14.12-12.55,20.38-21.6,0,4.8.75,10.78,5,12.75,1,.33,2.17,1.5,3,1.5.34.84,3.34.84,3.34.84,6.35,0,15.7-11.19,18.87-15.54l9.11-12.69a84.55,84.55,0,0,0,3.58,8.35l1.34,3c-1.17.83-5.22,3.63-6.51,4.84l-.5.5c-1,1.07-3,3.15-4,4.18s-2.7,2.82-3.51,3.84a6.05,6.05,0,0,0-1.5,4.68c0,3.34,3.84,8,8.35,8.35l2.17.33c9,0,20.88-7.52,20.88-19a10.9,10.9,0,0,0-.17-2.34,21.74,21.74,0,0,0-1.34-6l16-9.85,1.36-.84a2.72,2.72,0,0,1-.37,1,5.41,5.41,0,0,0-.33,1.84,5.29,5.29,0,0,1-.33,1.5,9.82,9.82,0,0,0-.84,3.85,2.59,2.59,0,0,0-.17.66c0,.17.17.34.17.5l-.17,2.18a15.27,15.27,0,0,1-.5,1.83c0,.17.17.34.5.67a2.19,2.19,0,0,0-.16,1v.84a3.35,3.35,0,0,0-.34,1,3.7,3.7,0,0,0,.17.67.6.6,0,0,0-.17.5c0,.5.34,1,.34,1.5v1a11.22,11.22,0,0,0,.33,2.51,1,1,0,0,0,.17.67l.67,1.5c.33.17.33.83,1,1.17,0,.17.33.33.5.5a25.05,25.05,0,0,0,4.51,2.51,7.32,7.32,0,0,0,2,.5,6.93,6.93,0,0,0,3.18.83,8.68,8.68,0,0,0,2.67-.83c1.33-.34,1.5-.84,2.67-1.34,1.17-.84,2.5-1.5,3.67-2.51a.49.49,0,0,0,.5-.5,9.74,9.74,0,0,0,2.84-3c1.54-.72,5.41-5.09,8.52-8.86v1.18a6.67,6.67,0,0,1,.33.83c1.51,4.68,2.68,4,5.18,5.35.67.33,3.51,2.17,4,2.17,7.18-.84,14.86-15.37,19-21.88a64.06,64.06,0,0,0-1.84,14.53v1.5c0,4.18,2.17,8.52,5.85,9.85,1.16.5,2,1.34,3,1.34.67,0,2.67.17,3.17.17a4.08,4.08,0,0,0,1.34-.17,15.92,15.92,0,0,0,5.35-3.17c6-5.35,15.36-20,18-24.39l4.68-7.51.17-1.34ZM428.6,136.3c-.84,0-.77-.14-1.44-.64-.16-.34.1-.52.1-.86,0-1.5,6.35-7.35,10.69-10.35C440,130,433.77,136,428.6,136.3Zm88.17-26.72c-7.35,11.36-7,10.69-7.52,11.36a2.47,2.47,0,0,1-.83.5l.5-1.5a5.34,5.34,0,0,1,.33-2.17,77.36,77.36,0,0,1,7.85-16.37c4.35-6.68,9.86-12.86,12.53-13.19.33,0,1.17-.17,1.67-.17C527.63,92.55,521.45,102.4,516.77,109.58Z"/></symbol></defs><g id="Layer_2" data-name="Layer 2"><g id="Logos"><use width="566.71" height="151.8" xlink:href="#CulCiclista"/></g></g></svg>