<svg xmlns="http://www.w3.org/2000/svg" xmlns:xlink="http://www.w3.org/1999/xlink" viewBox="0 0 483.5 104.09"><defs><style>.cls-1{fill:url(#linear-gradient);}</style><linearGradient id="linear-gradient" x1="483.5" y1="52.05" x2="0" y2="52.05" gradientUnits="userSpaceOnUse"><stop offset="0" stop-color="#fff"/><stop offset="0.45" stop-color="#fff" stop-opacity="0.86"/><stop offset="1" stop-color="#fff" stop-opacity="0.7"/></linearGradient></defs><g id="Layer_2" data-name="Layer 2"><g id="gradient_logo" data-name="gradient logo"><path class="cls-1" d="M60.16,20a322.83,322.83,0,0,0-10.69,36.2c-3.09,13.14-7.21,32-7.86,40.71l-.26,3.48c0,.51-.25.51-.38.51-.39,0-.26,2.07-.52,2.07a1,1,0,0,1-.77.38c-.26,0-.13-.38-.39-.51a.94.94,0,0,1-.64.13h-.9c-.39,0-.65,0-.65.25s0,.65-.38.78a1.38,1.38,0,0,0-.39.12v-2.7c0-.13-.13-.64-.26-.64l-.38,1.67c-.26,0-.13-1-.26-.9a.57.57,0,0,0-.39.13l.26-5.29c-.13,0-.39.65-.52,1a.47.47,0,0,0,.13.38,4.84,4.84,0,0,1-.13,1.55,5.15,5.15,0,0,0-.12,1.29,4.63,4.63,0,0,0,.12,1.28c-.25,0-.51-.38-.77-.38s-1.42-2.45-1.67-2.19c-.78,0-.91-1-.91-1.81v-.77a.81.81,0,0,1,.26-.64v-.52a13.83,13.83,0,0,1-.13-2.32L32,88.89a30,30,0,0,1,.64-4.38A6.45,6.45,0,0,0,33,82.32C34.4,75.49,36.46,67,36.46,66.86a11.06,11.06,0,0,1,.39-1.67c.12-.65.12-.77.38-1a1,1,0,0,0,.26-.65l.13-1c0-.13,0-.51.13-.64.25-1.29.51-1.68.51-1.93s.78-3.1.78-3.1c0-.64.38-1,.51-1.67L40.07,53a6.9,6.9,0,0,0,.64-1.8l.52-1.68-1.29,2.58c-5.41,10.56-10.18,20.61-17,30.66-2.32,3.86-7.86,10.43-12.62,10.43H9.53C1,92.89,0,84.25,0,77.68c0-1.67,0-3.6.13-6.05A185.72,185.72,0,0,1,25,4.38C26.41,2.32,27.57.77,30.27.13A2.86,2.86,0,0,1,31.43,0c.91,0,1.94.13,2.45.13.9,0,1.16.26,1.93,1.16a2.9,2.9,0,0,1,.78,1.54,3.76,3.76,0,0,1-.52,1.42C30.4,17.13,23.32,28.47,15.33,55.78a145.33,145.33,0,0,0-4.89,26.54L10.18,85l.38,2.57c0,.13.13.39.26.39a1.76,1.76,0,0,0,.77-.26c14.82-20,23.07-42.9,35.18-64.15.9-1.29,1.54-2.58,2.31-3.87,1.94-4,4-11.08,7.35-11.59A23.91,23.91,0,0,1,59.13,8c2.19,0,1.29,1.29,2.58,2.32a1.83,1.83,0,0,1,1,1.8c0,.39-.13.77-.13,1.29Zm46.38,36.46L106,55.27l-.13.26a9.69,9.69,0,0,0,.26-2.19C104.1,56.17,85,84.13,82.71,84.13c-.13,0-.13-.13-.13-.78.26-4.25,3.09-11.72,4.64-16.75.9-2.83,3.09-10,3.09-13.26a12.23,12.23,0,0,0-.39-3.87c-.64-3.61-5.15-4.89-8.37-6.18a5.37,5.37,0,0,0-3.35,1C74.72,45.86,70,51.53,67,56.56a34.1,34.1,0,0,0,1.42-7.86v-.65a17.82,17.82,0,0,1-.26-2.32C68,45,66.61,43.67,66,43.16a21.66,21.66,0,0,0-4.38-1.68c-.77,0-1,.78-1.16,1.16C59,49,55.27,63.51,51.79,76.27a3.16,3.16,0,0,0-.26.9c0,.26.52.39.65.64a.86.86,0,0,0,.9.52c.39-.13,3.48,3,5.15,3.35,1.42,0,2.71-.13,3.35-1.68A4,4,0,0,0,62,78.84c1.8-3,1.8-4.89,3.35-7.6C72,58.62,79,50.37,81.16,49.47c.13,0,.13.13.13.39l-.13,2.06C80.78,55,77.69,63.9,76,69.18c-.26.9-1.55,5.54-1.55,6.06a10.76,10.76,0,0,0-.25,2.19v.77a2.17,2.17,0,0,0-.13.9v2.19c.13,2.45.64,4.38,3.86,6.31a14,14,0,0,0,4.64.91c2.19-.39,5.15-2.32,8.89-7.09A110,110,0,0,0,100.1,69.7c.41-.66,1.07-2.09,1.55-2.71a6.23,6.23,0,0,0,.64-.77l1.81-2.45,3.6-6.31V56.3a16.45,16.45,0,0,1-1.8,1.54L107.7,55Zm123,2.57-.65-.9a5.25,5.25,0,0,0,.65-1.29s.13-.64.13-.77l-.78,1.16-.38-1.93.64-1c-.77.13-1,.64-1.55,1.41-3.09,3.87-15.84,23.84-22.93,29.25a2.06,2.06,0,0,1-.64.26c-.52,0-.26-.65-.52-1.55V83.1c0-9.54,6.06-26.41,9.15-34.92,3.48-10,5.54-16.1,7.73-25.89a4,4,0,0,0,.13-1.29,1.9,1.9,0,0,0-.26-1.16,5.68,5.68,0,0,0-4.12-5.28.82.82,0,0,0-.77-.65,1.87,1.87,0,0,0-1.68,1C208.87,30,201.86,47.83,198.26,59.36c-4.73,6.71-16.11,22.45-18.67,22.45q-.39,0-.39-.78v-.51c1.16-9.15,4.9-22.68,8.12-31.18,0-.13-1-.64-1-1.16a4.6,4.6,0,0,0,.13-.9c-1-1.29-4.25-1.67-5.41-1.67-3.87,0-19.84,30.91-22,31.3l-.26-.77c.9-9.54,6.7-21.52,11.08-29.5a1.6,1.6,0,0,0,.26-.65c0-1.41-5.54-2.57-7-2.57-2.19,0-7.6,7.34-9.79,12.36a55.84,55.84,0,0,0-2.32,6c-6.49,8.83-15.05,19.26-21.52,21.67a1.36,1.36,0,0,1-.64.13h-.51c-2.32,0-3-4-3-5.8a47.34,47.34,0,0,1,1.29-8.89l.52-1.41a14.73,14.73,0,0,0,.51-2.19l.52-1.29c2.57-6.44,6.44-14.56,12.11-18.81a.76.76,0,0,0,.51-.13l.26,1c-.64,3-1.8,5.15-2.71,8a3.07,3.07,0,0,0,1.29,2.7,2.84,2.84,0,0,0,1.93.78,6.37,6.37,0,0,0,1.68-.39c.77-.39.77-1.16,1.16-1.93a15.34,15.34,0,0,1,1.67-3.61,9.07,9.07,0,0,0,1.29-4.12,3.54,3.54,0,0,0-.13-1.16,4,4,0,0,0-1.93-3.48l-2.06-1.29c-.9-.64-6.31-2.7-7.86-2.7a11.14,11.14,0,0,0-2.06.51,23.32,23.32,0,0,0-3.87,2.71C119,53.08,114.79,66.6,114.79,74.33l.13,1a14.18,14.18,0,0,0,1.8,6.82c1.68,3.35,8.12,6.06,12,6.06l.65-.13a18.85,18.85,0,0,0,4.12-1.29,33.44,33.44,0,0,0,8.76-6.44c.64-.52.9-1.16,1.54-1.68,0,.13.78-.9.78-.77L146.22,76c.13-.26.39-1.16,1-1.29.51-.66,1.19-1.57,2-2.62,0,.27,0,.54,0,.82a3.85,3.85,0,0,0,.12,1.16v1.41c.52,2.71,4.13,6.06,8.51,7h.64c4.51,0,10.69-9.15,13.66-14.81a47,47,0,0,0-1.55,9.4v.77c0,5.67,5.41,8.51,8.76,8.51,3.87,0,10.57-7.35,14-12.11L195,72a32.06,32.06,0,0,0-.44,5v1.55c.12,3.73,1,8.76,2.57,8.76l1.16.77c.77.77,3,1.42,3.74,2.06a1.7,1.7,0,0,0,1,.26c1.67,0,1-.39,2.19-.65,6.57-2.31,16.9-18.36,21-24.73.69-1.08,2.16-3.17,2.83-4.25a8.12,8.12,0,0,0,1.16-2.19C230.22,58.36,229.83,59,229.58,59ZM283,39.94a4.8,4.8,0,0,1-.77-2.58c0-3.61,4.9-3,5.41-3.35,1.8,0,4.64,1.68,4.64,3.35A5.5,5.5,0,0,1,290,40.45a4.85,4.85,0,0,1-3.35,1.16,4,4,0,0,1-1.16-.13C284.33,41,283.43,40.84,283,39.94Zm81.42,1.54a4,4,0,0,0,1.16.13A4.85,4.85,0,0,0,369,40.45a5.46,5.46,0,0,0,2.32-3.09c0-1.67-2.83-3.35-4.64-3.35-.51.39-5.41-.26-5.41,3.35a4.74,4.74,0,0,0,.78,2.58C362.4,40.84,363.31,41,364.46,41.48ZM483.25,55.91l-.65.26.39-.64.13-.91-1,1.42.51-4.12C478.87,57.2,465.34,78.84,460.7,81c0,0-.13,0-.39-1,0-6.18,4.9-28.21,7.09-31.69a17.49,17.49,0,0,0,1.29-5.41c0-.9-2.45-2.83-4.38-2.83h-.52l-1-.52c-2.06.13-3.09,3-3.73,3.74-1.81-.39-4.51-1.94-5.8-1.94-8.06,0-18.25,13.89-21.22,22.91-5.8,7.23-12.46,14.95-16.27,17a1.41,1.41,0,0,1-.65.13c-.51,0-.64-.51-.64-1.16.26-10.82,4-22.67,8.12-34.14l.13-.9c1.93-4.77,4-10.44,5.66-15.72,2.84-.26,5.67-.38,8.51-.38,1.54,0,2.83,0,4.25.12,2.7.13,3.48.26,4,.26.26-.51,1.68-.9,1.81-1-.26-.13-.26-.64-.26-.77s.64,0,.77-.77c-1.16-1.29-5.67-2.84-11.72-3H430l.26-1a19.55,19.55,0,0,0,1.28-5.41v-.64c0-.13-.64-.78-.77-1.29-.13-1.81-.38-3.48-2.45-3.48-.51,0-1.93-.77-2.32-.77a1.15,1.15,0,0,0-.77.38l-.9,1.94-4.12,10.82c-2.84.26-6.19.51-10.44,1-3.73.38-9.53.77-13.27.77a18.27,18.27,0,0,1-3.35-.26c-.38-.13-.38-.25-.38-.25-.26,0-.9.12-.9.38a2.09,2.09,0,0,0-.39,1.16,5.07,5.07,0,0,0,.26,1.68c1,3.09,5.41,3.6,8.11,3.6h2.45c4-.25,9.41-1.16,15.33-1.93a225.82,225.82,0,0,0-9.2,25.86c-5,3.25-12.13,7-16.82,10-1.42-3-5-10.18-5-14.43,0-5.8,6.19-9.41,11.08-9.41h.52c.26,0,.51,0,.64.9,0,2.45-1.8,7.09-1.8,7.73,0,.39.77.78,1.42,1,.12,0,1.28.39,1.54.39a6.45,6.45,0,0,0,1.42.13c1,0,1.54-1,1.67-1h.52a9,9,0,0,0,3-5.93c0-1.93-2.45-7.73-5.28-7.73l-4-1.67s-2.07-.52-2.32-.52c-7.73,0-18,7.22-18,16.62a26.55,26.55,0,0,0,.48,4.88c-5.84,8-14.59,20-18.39,22.31a2.52,2.52,0,0,1-1,.25,17.22,17.22,0,0,1-.25-3.09l.12-1.16a63.9,63.9,0,0,1,3.22-12.11l.39-.9c1.55-4,4-9.53,4.12-12.24V50c0-3.48-1.41-4.38-4.76-5.41-.26,0-.78-.52-1.16-.52a1.62,1.62,0,0,0-1.81,1.29c-1.91,5.43-5,10.91-7.1,16.65-5.26,7.55-13.3,19-18.4,22.9a2.2,2.2,0,0,1-.65.26c-.51,0-.26-.65-.51-1.55V83.1c0-9.54,6-26.41,9.14-34.92,3.48-10,5.54-16.1,7.73-25.89a4,4,0,0,0,.13-1.29,1.9,1.9,0,0,0-.26-1.16,5.68,5.68,0,0,0-4.12-5.28.82.82,0,0,0-.77-.65,1.88,1.88,0,0,0-1.68,1c-4.72,14.65-11.48,31.91-15.17,43.45-6.82,9.19-17.67,23.42-22.06,23.42-1.8,0-2.32-2.45-2.32-5,0-4.38,2.19-12.62,4.77-18.42,1.29-2.83,6.7-11.85,9.15-11.85,0,.13.12.26.12.38,0,1.55-1.8,6.06-1.93,7,0,.13.13.13.13.39.39.13.52.13.52.26a3.75,3.75,0,0,1-.52.64.42.42,0,0,0,.39.39c.38.12.51.12.64.25a2,2,0,0,0,1.29.65.64.64,0,0,0,.51-.26c.13.26.13.52.26.52h.52c1.41,0,1.54-.39,1.8-1,0-1.41,1.93-3.09,2.06-4.89a30.13,30.13,0,0,0,.52-3.61,4.11,4.11,0,0,0-3-4,33,33,0,0,0-7.85-2.71c-4.51,0-10.95,9-13,12.76a44.48,44.48,0,0,0-4.42,10.57c-5.14,6.93-10.86,14.22-13.74,16a2.56,2.56,0,0,1-1,.25,17,17,0,0,1-.26-3.09l.13-1.16a63.16,63.16,0,0,1,3.22-12.11l.39-.9c1.54-4,4-9.53,4.12-12.24V50c0-3.48-1.42-4.38-4.77-5.41-.25,0-.77-.52-1.16-.52a1.61,1.61,0,0,0-1.8,1.29c-2,5.54-5.14,11.13-7.23,17-6.43,8.7-14.78,18.77-21.11,21.13a1.41,1.41,0,0,1-.65.13h-.51c-2.32,0-3-4-3-5.8a48.17,48.17,0,0,1,1.29-8.89l.52-1.41a12.59,12.59,0,0,0,.51-2.19l.52-1.29c2.58-6.44,6.44-14.56,12.11-18.81a.74.74,0,0,0,.51-.13l.26,1c-.64,3-1.8,5.15-2.7,8a3.07,3.07,0,0,0,1.28,2.7,2.84,2.84,0,0,0,1.94.78,6.3,6.3,0,0,0,1.67-.39c.78-.39.78-1.16,1.16-1.93a15,15,0,0,1,1.68-3.61,9.18,9.18,0,0,0,1.28-4.12,3.82,3.82,0,0,0-.12-1.16,4.06,4.06,0,0,0-1.94-3.48l-2.06-1.29c-.9-.64-6.31-2.7-7.86-2.7a11.33,11.33,0,0,0-2.06.51,22.85,22.85,0,0,0-3.86,2.71c-10.44,10.95-14.69,24.47-14.69,32.2l.13,1a14.18,14.18,0,0,0,1.8,6.82c1.68,3.35,8.12,6.06,12,6.06l.65-.13a18.85,18.85,0,0,0,4.12-1.29,33.44,33.44,0,0,0,8.76-6.44c.65-.52.9-1.16,1.55-1.68,0,.13.77-.9.77-.77L267.33,76c.12-.26.38-1.16,1-1.29L269.65,73c0,3.72.54,8.42,3.86,10,.77.25,1.67,1.16,2.32,1.16.26.64,2.57.64,2.57.64,4.67,0,11.44-7.84,14.18-11.47a14.37,14.37,0,0,0,.9,5.54c0,.65,1.16,3.74,2.32,3.74a.46.46,0,0,0,.38-.13c0-.13-.13-.39-.25-.39l-.65-.38s.39,0,.39-.26c1.16,2.32,5.79,4.51,7.86,4.51,3.6,0,7.34-2.45,9.4-4l1.16-1.55c.77,0,4.64-4.12,4.64-4.51.38,0,.38-1.29,1-1.29l.26-.51c0-.13.15-.28.38-.39s.49-.58.65-.77c.48-.62,1.87-2.5,1.87-2.5a34.9,34.9,0,0,0-.71,6.62v1.55c.13,3.73,1,8.76,2.57,8.76l1.16.77c.78.77,3,1.42,3.74,2.06a1.72,1.72,0,0,0,1,.26c1.68,0,1-.39,2.19-.65,4.53-1.59,10.89-9.68,15.72-16.66,0,3.7.58,8.32,3.86,9.84.78.25,1.68,1.16,2.32,1.16.26.64,2.58.64,2.58.64,4.89,0,12.11-8.63,14.56-12l7-9.8a62.92,62.92,0,0,0,2.77,6.45l1,2.32c-.9.64-4,2.83-5,3.73l-.38.39-.52.39c-.64.38-3.6,2.7-3.73,3.48s-1.16,1.67-1.55,2.31a5.11,5.11,0,0,0-1.16,3.61c0,2.58,3,6.19,6.44,6.44l1.68.26c6.95,0,16.1-5.8,16.1-14.69a8.4,8.4,0,0,0-.13-1.8,16.58,16.58,0,0,0-1-4.64l12.37-7.6,1.05-.64a2.17,2.17,0,0,1-.28.77,4,4,0,0,0-.26,1.42,3.64,3.64,0,0,1-.25,1.16,7.56,7.56,0,0,0-.65,3,2,2,0,0,0-.13.52c0,.12.13.25.13.38l-.13,1.68a12,12,0,0,1-.38,1.41c0,.13.13.26.38.52a1.61,1.61,0,0,0-.13.77v.65a2.9,2.9,0,0,0-.25.77,2.79,2.79,0,0,0,.13.51.48.48,0,0,0-.13.39c0,.39.25.77.25,1.16v.77a8.75,8.75,0,0,0,.26,1.94.76.76,0,0,0,.13.51l.52,1.16c.25.13.25.65.77.9,0,.13.26.26.39.39a18.92,18.92,0,0,0,3.47,1.93,229,229,0,0,1,4,1,6.51,6.51,0,0,0,2.06-.64c1-.26,1.16-.65,2.06-1,.9-.65,1.93-1.16,2.84-1.93a.38.38,0,0,0,.38-.39,7.51,7.51,0,0,0,2.19-2.32c1.19-.55,4.18-3.93,6.57-6.84v.91a6.12,6.12,0,0,1,.26.65c1.16,3.6,2.06,3.09,4,4.12a24.83,24.83,0,0,0,3.1,1.68c5.54-.65,11.46-11.86,14.68-16.88a49.54,49.54,0,0,0-1.41,11.21V76.4c0,3.22,1.67,6.57,4.5,7.6.91.38,1.55,1,2.32,1,.52,0,2.06.13,2.45.13a3.17,3.17,0,0,0,1-.13,12.13,12.13,0,0,0,4.12-2.45c4.64-4.12,11.86-15.46,13.92-18.81l3.61-5.8.12-1ZM377,86.57a3.31,3.31,0,0,1-1.93-.38c-.13-.26.9-.52.9-.78,0-1.16,4.9-5.66,8.25-8C385.72,81.68,381,86.32,377,86.57ZM445,66c-5.66,8.76-5.41,8.25-5.79,8.76a1.9,1.9,0,0,1-.65.39l.39-1.16a4.09,4.09,0,0,1,.26-1.68,59.11,59.11,0,0,1,6.05-12.62c3.35-5.15,7.6-9.92,9.66-10.18.26,0,.91-.13,1.29-.13C453.36,52.82,448.59,60.42,445,66Z"/></g></g></svg>